<svg width="100" height="80" viewBox="0 0 100 80" fill="none" xmlns="http://www.w3.org/2000/svg">
<rect width="100" height="80" fill="black"/>
<rect x="6" y="10" width="50.0909" height="13.0435" fill="white"/>
<ellipse cx="67.9546" cy="16.5217" rx="6.59091" ry="6.52174" fill="white"/>
<ellipse cx="86.4091" cy="16.5217" rx="6.59091" ry="6.52174" fill="white"/>
<path d="M26.0881 17.6087H24.689V13.9723H26.0739C26.448 13.9723 26.7711 14.0451 27.0434 14.1907C27.3168 14.3351 27.5275 14.5435 27.6755 14.8157C27.8246 15.0868 27.8992 15.4117 27.8992 15.7905C27.8992 16.1693 27.8252 16.4948 27.6772 16.7671C27.5293 17.0382 27.3198 17.2465 27.0487 17.3921C26.7776 17.5365 26.4574 17.6087 26.0881 17.6087ZM25.6762 16.7706H26.0526C26.2325 16.7706 26.3858 16.7416 26.5125 16.6836C26.6403 16.6256 26.7374 16.5256 26.8037 16.3836C26.8711 16.2415 26.9049 16.0438 26.9049 15.7905C26.9049 15.5372 26.8705 15.3395 26.8019 15.1975C26.7344 15.0554 26.635 14.9554 26.5036 14.8974C26.3734 14.8394 26.2136 14.8104 26.0242 14.8104H25.6762V16.7706ZM29.0711 17.6087H28.0057L29.206 13.9723H30.5554L31.7557 17.6087H30.6904L29.8949 14.9738H29.8665L29.0711 17.6087ZM28.8722 16.174H30.875V16.9127H28.8722V16.174ZM33.9246 15.1087C33.9151 14.9903 33.8707 14.898 33.7914 14.8317C33.7133 14.7654 33.5943 14.7323 33.4345 14.7323C33.3327 14.7323 33.2493 14.7447 33.1842 14.7696C33.1203 14.7932 33.0729 14.8258 33.0421 14.8672C33.0113 14.9087 32.9954 14.956 32.9942 15.0093C32.9918 15.0531 32.9995 15.0927 33.0173 15.1282C33.0362 15.1626 33.0658 15.1939 33.106 15.2223C33.1463 15.2496 33.1978 15.2744 33.2605 15.2969C33.3233 15.3194 33.3978 15.3395 33.4842 15.3573L33.7825 15.4212C33.9838 15.4638 34.156 15.52 34.2992 15.5899C34.4425 15.6597 34.5596 15.742 34.6508 15.8367C34.7419 15.9302 34.8088 16.0356 34.8514 16.1527C34.8952 16.2699 34.9177 16.3978 34.9189 16.5363C34.9177 16.7754 34.8579 16.9778 34.7396 17.1435C34.6212 17.3092 34.4519 17.4353 34.2318 17.5217C34.0128 17.6081 33.7494 17.6513 33.4416 17.6513C33.1256 17.6513 32.8498 17.6046 32.6142 17.511C32.3798 17.4175 32.1975 17.2737 32.0673 17.0796C31.9383 16.8843 31.8732 16.6345 31.872 16.3303H32.8095C32.8154 16.4416 32.8433 16.5351 32.893 16.6108C32.9427 16.6866 33.0125 16.744 33.1025 16.7831C33.1936 16.8221 33.302 16.8417 33.4274 16.8417C33.5328 16.8417 33.621 16.8286 33.692 16.8026C33.763 16.7766 33.8169 16.7405 33.8536 16.6943C33.8903 16.6481 33.9092 16.5954 33.9104 16.5363C33.9092 16.4806 33.8908 16.4321 33.8553 16.3907C33.821 16.3481 33.7642 16.3102 33.6849 16.277C33.6056 16.2427 33.4984 16.2107 33.3635 16.1811L33.0013 16.103C32.6793 16.0332 32.4254 15.9166 32.2396 15.7532C32.0549 15.5887 31.9632 15.3644 31.9644 15.0803C31.9632 14.8495 32.0247 14.6476 32.149 14.4748C32.2745 14.3008 32.4479 14.1653 32.6693 14.0682C32.8918 13.9712 33.1469 13.9226 33.4345 13.9226C33.7281 13.9226 33.982 13.9717 34.1962 14.07C34.4105 14.1682 34.5756 14.3067 34.6916 14.4855C34.8088 14.663 34.868 14.8708 34.8692 15.1087H33.9246ZM35.2944 17.6087V13.9723H36.2816V15.3928H37.5885V13.9723H38.5757V17.6087H37.5885V16.1882H36.2816V17.6087H35.2944Z" fill="black"/>
<rect x="6" y="56.9565" width="31.6364" height="13.0435" fill="white"/>
<ellipse cx="49.5" cy="63.4783" rx="6.59091" ry="6.52174" fill="#FFFEFE"/>
<ellipse cx="67.9546" cy="63.4783" rx="6.59091" ry="6.52174" fill="white"/>
<ellipse cx="86.4091" cy="63.4783" rx="6.59091" ry="6.52174" fill="white"/>
<path d="M11.5071 64.5652V60.9289H13.0838C13.3608 60.9289 13.5934 60.9661 13.7816 61.0407C13.971 61.1153 14.1137 61.2206 14.2096 61.3568C14.3066 61.4929 14.3552 61.6533 14.3552 61.8379C14.3552 61.9717 14.3256 62.0936 14.2664 62.2037C14.2084 62.3138 14.1267 62.4061 14.0213 62.4807C13.916 62.5541 13.7929 62.605 13.652 62.6334V62.6689C13.8083 62.6748 13.9503 62.7145 14.0782 62.7879C14.206 62.8601 14.3078 62.9601 14.3836 63.0879C14.4593 63.2146 14.4972 63.3637 14.4972 63.5354C14.4972 63.7343 14.4451 63.9112 14.3409 64.0663C14.238 64.2213 14.0912 64.3433 13.9006 64.432C13.71 64.5208 13.4828 64.5652 13.2188 64.5652H11.5071ZM12.4944 63.7769H12.956C13.1217 63.7769 13.246 63.7461 13.3289 63.6845C13.4117 63.6218 13.4532 63.5295 13.4532 63.4075C13.4532 63.3223 13.4336 63.2501 13.3946 63.1909C13.3555 63.1317 13.2999 63.0868 13.2277 63.056C13.1566 63.0252 13.0708 63.0098 12.9702 63.0098H12.4944V63.7769ZM12.4944 62.399H12.8992C12.9856 62.399 13.0619 62.3854 13.1282 62.3582C13.1945 62.331 13.246 62.2919 13.2827 62.241C13.3206 62.1889 13.3395 62.1256 13.3395 62.051C13.3395 61.9386 13.2993 61.8527 13.2188 61.7936C13.1383 61.7332 13.0365 61.703 12.9134 61.703H12.4944V62.399ZM14.847 64.5652V60.9289H17.4677V61.7243H15.8342V62.3493H17.3328V63.1448H15.8342V63.7698H17.4606V64.5652H14.847ZM18.9019 64.5652H17.8366L19.0369 60.9289H20.3863L21.5866 64.5652H20.5213L19.7258 61.9303H19.6974L18.9019 64.5652ZM18.7031 63.1306H20.7059V63.8692H18.7031V63.1306ZM21.3784 61.7243V60.9289H24.5389V61.7243H23.4452V64.5652H22.4722V61.7243H21.3784ZM26.8707 62.0652C26.8612 61.9468 26.8168 61.8545 26.7375 61.7882C26.6594 61.7219 26.5404 61.6888 26.3806 61.6888C26.2788 61.6888 26.1954 61.7012 26.1303 61.7261C26.0664 61.7498 26.019 61.7823 25.9882 61.8237C25.9575 61.8652 25.9415 61.9125 25.9403 61.9658C25.9379 62.0096 25.9456 62.0492 25.9634 62.0847C25.9823 62.1191 26.0119 62.1504 26.0522 62.1789C26.0924 62.2061 26.1439 62.2309 26.2066 62.2534C26.2694 62.2759 26.3439 62.296 26.4303 62.3138L26.7286 62.3777C26.9299 62.4203 27.1021 62.4766 27.2453 62.5464C27.3886 62.6162 27.5058 62.6985 27.5969 62.7932C27.688 62.8867 27.7549 62.9921 27.7975 63.1093C27.8413 63.2264 27.8638 63.3543 27.865 63.4928C27.8638 63.7319 27.804 63.9343 27.6857 64.1C27.5673 64.2657 27.398 64.3918 27.1779 64.4782C26.9589 64.5646 26.6955 64.6078 26.3877 64.6078C26.0717 64.6078 25.7959 64.5611 25.5603 64.4676C25.3259 64.374 25.1437 64.2302 25.0134 64.0361C24.8844 63.8408 24.8193 63.591 24.8181 63.2868H25.7556C25.7616 63.3981 25.7894 63.4916 25.8391 63.5673C25.8888 63.6431 25.9586 63.7005 26.0486 63.7396C26.1397 63.7786 26.2481 63.7982 26.3735 63.7982C26.4789 63.7982 26.5671 63.7851 26.6381 63.7591C26.7091 63.7331 26.763 63.697 26.7997 63.6508C26.8364 63.6046 26.8553 63.552 26.8565 63.4928C26.8553 63.4371 26.837 63.3886 26.8014 63.3472C26.7671 63.3046 26.7103 63.2667 26.631 63.2335C26.5517 63.1992 26.4446 63.1673 26.3096 63.1377L25.9474 63.0595C25.6254 62.9897 25.3715 62.8731 25.1857 62.7097C25.001 62.5452 24.9093 62.3209 24.9105 62.0368C24.9093 61.806 24.9708 61.6042 25.0951 61.4313C25.2206 61.2573 25.394 61.1218 25.6154 61.0247C25.8379 60.9277 26.093 60.8791 26.3806 60.8791C26.6742 60.8791 26.9281 60.9283 27.1424 61.0265C27.3566 61.1248 27.5217 61.2633 27.6377 61.442C27.7549 61.6195 27.8141 61.8273 27.8153 62.0652H26.8707Z" fill="black"/>
<rect x="6" y="33.4783" width="50.0909" height="13.0435" fill="white"/>
<ellipse cx="67.9546" cy="40" rx="6.59091" ry="6.52174" fill="white"/>
<ellipse cx="86.4091" cy="40" rx="6.59091" ry="6.52174" fill="white"/>
<path d="M26.0881 41.087H24.689V37.4506H26.0739C26.448 37.4506 26.7711 37.5234 27.0434 37.669C27.3168 37.8134 27.5275 38.0218 27.6755 38.294C27.8246 38.5651 27.8992 38.89 27.8992 39.2688C27.8992 39.6476 27.8252 39.9731 27.6772 40.2454C27.5293 40.5164 27.3198 40.7248 27.0487 40.8704C26.7776 41.0148 26.4574 41.087 26.0881 41.087ZM25.6762 40.2489H26.0526C26.2325 40.2489 26.3858 40.2199 26.5125 40.1619C26.6403 40.1039 26.7374 40.0039 26.8037 39.8618C26.8711 39.7198 26.9049 39.5221 26.9049 39.2688C26.9049 39.0155 26.8705 38.8178 26.8019 38.6758C26.7344 38.5337 26.635 38.4337 26.5036 38.3757C26.3734 38.3177 26.2136 38.2887 26.0242 38.2887H25.6762V40.2489ZM31.8787 39.2688C31.8787 39.6736 31.8 40.0151 31.6425 40.2933C31.4851 40.5703 31.2726 40.7804 31.0051 40.9236C30.7376 41.0657 30.4393 41.1367 30.1102 41.1367C29.7788 41.1367 29.4793 41.0651 29.2118 40.9218C28.9454 40.7774 28.7336 40.5667 28.5761 40.2897C28.4199 40.0116 28.3418 39.6713 28.3418 39.2688C28.3418 38.864 28.4199 38.5231 28.5761 38.2461C28.7336 37.9679 28.9454 37.7578 29.2118 37.6157C29.4793 37.4725 29.7788 37.4009 30.1102 37.4009C30.4393 37.4009 30.7376 37.4725 31.0051 37.6157C31.2726 37.7578 31.4851 37.9679 31.6425 38.2461C31.8 38.5231 31.8787 38.864 31.8787 39.2688ZM30.8631 39.2688C30.8631 39.051 30.8341 38.8675 30.7761 38.7184C30.7192 38.568 30.6346 38.4544 30.5222 38.3775C30.4109 38.2993 30.2736 38.2603 30.1102 38.2603C29.9469 38.2603 29.809 38.2993 29.6965 38.3775C29.5852 38.4544 29.5006 38.568 29.4426 38.7184C29.3858 38.8675 29.3574 39.051 29.3574 39.2688C29.3574 39.4866 29.3858 39.6707 29.4426 39.821C29.5006 39.9701 29.5852 40.0838 29.6965 40.1619C29.809 40.2388 29.9469 40.2773 30.1102 40.2773C30.2736 40.2773 30.4109 40.2388 30.5222 40.1619C30.6346 40.0838 30.7192 39.9701 30.7761 39.821C30.8341 39.6707 30.8631 39.4866 30.8631 39.2688ZM32.0651 38.2461V37.4506H35.2256V38.2461H34.1319V41.087H33.1589V38.2461H32.0651Z" fill="black"/>
</svg>
